<?xml version="1.0" standalone="no"?>
<!DOCTYPE svg PUBLIC "-//W3C//DTD SVG 1.1//EN" "http://www.w3.org/Graphics/SVG/1.1/DTD/svg11.dtd" >
<svg xmlns="http://www.w3.org/2000/svg">
<metadata>Generated by IcoMoon</metadata>
<defs>
<font id="icomoon" horiz-adv-x="1024">
<font-face units-per-em="1024" ascent="960" descent="-64" />
<missing-glyph horiz-adv-x="1024" />
<glyph unicode="&#x20;" horiz-adv-x="512" d="" />
<glyph unicode="&#xe900;" d="M281.19 334.336l427.622 0.41-54.067-285.082-321.741-0.819-51.814 285.491zM749.568 365.466h-510.157l-1.434 62.054 516.096 2.253 0.41-55.091c-0.614-15.77 0.819-5.325-4.915-9.216v0zM308.019 462.541c0 4.506-4.096 1.638 4.506 10.035l26.624 14.131c55.501 15.36 68.608-25.6 84.582-3.482 27.853 37.888 64.512 60.826 117.76 44.032 38.298-12.083 35.84-22.938 57.958-41.574 4.301-1.434 41.165 1.434 66.56-12.288 16.998-9.011 9.216-6.758 8.602-10.854h-366.592zM649.421 631.091l-58.163 28.058 14.131 31.949 13.926 31.334 164.864-67.379-27.443-70.246-107.315 46.285zM393.011 682.701c-73.933-27.238-126.976 86.016-93.594 115.507 23.347-56.934 12.493-60.416 93.594-115.507v0zM355.533 741.069c-21.504 20.48-36.25 49.971-32.768 82.534 12.083-7.168 22.118-17.408 33.997-24.371 37.274-22.118 84.582-49.152 67.174-104.038-14.95 5.12-57.139 35.226-68.403 45.875v0zM276.89 487.526l-8.192-7.168-20.275-24.371-41.984-4.301 4.096-110.182 39.117-2.662 61.235-317.85 368.435 0.205 59.802 318.669 40.141 1.843 2.867 113.664-45.056 0.819c-18.432 20.275-42.394 36.045-72.499 42.598l-30.925 2.253 5.12 13.517 34.816 79.258 102.4-40.346 41.984 112.026c-13.722 12.288-199.475 90.726-215.040 89.907l-45.056-107.52 95.232-45.67-37.683-87.859c-66.15 47.718-86.426 41.574-100.762 45.875-7.987 18.637-7.987 78.029-63.488 104.653 2.253 32.768 13.107 44.237-0.205 80.896-15.565 43.622-62.669 61.645-98.509 87.654-48.947 35.43-18.432 39.731-51.61 41.984-20.070-54.682-45.67-101.99-12.698-159.539 35.021-61.44 70.451-59.187 140.288-59.802 36.045-24.986 57.958-46.694 61.645-95.846-15.565-8.806-36.045-12.288-53.248-23.552-21.094-13.722-22.528-21.914-38.912-36.045-54.067 16.794-73.114 15.565-121.037-13.107v0z" />
<glyph unicode="&#xe901;" d="M646.349 634.573v0z" />
<glyph unicode="&#xe902;" d="M268.493 485.478v0z" />
<glyph unicode="&#xe903;" d="M647.373 677.376c-1.843 0.819-2.253 2.253-2.867 3.072-0.205 0.41-0.614 0.819-0.614 1.024-1.024 0.41-0.614 0.205-1.638 0.205-0.614 0-1.229 0.205-1.434 0.205l1.638-2.662c1.024-1.229 1.638-1.843 4.506-3.072 1.434-0.614 2.867-0.819 3.686-0.819 1.024 0 1.638 0.205 2.458 0.41 1.024 0.205 3.277 1.229 4.915 0.614 1.229-0.614 1.638-1.434 1.843-1.843 0.614-0.819 0.819-1.229 1.229-1.843 0.819-1.434 1.843-2.662 5.325-3.891 2.867-1.229 4.71-0.819 5.939-0.614 0.819 0.205 1.434 0.41 2.048 0.614 0.41 0.205 1.843 0.41 2.867 0 0.41-0.205 1.229-0.819 1.434-1.229 1.638-2.048 1.843-4.71 6.554-6.554 6.554-2.662 7.987 1.024 11.059 0 1.024-0.41 1.638-1.024 1.843-1.434s0.205-0.205 0.41-0.614c1.024-1.434 1.434-3.891 6.144-5.734 4.506-1.638 6.144-0.41 8.397 0 2.048 0.41 3.277 0.41 4.915-1.843 1.024-1.638 1.638-4.096 5.939-5.734 4.096-1.638 6.349-0.614 8.397 0 2.662 0.614 3.891-0.41 5.12-2.253 0.41-0.819 1.229-3.072 2.867-3.686 0.205 0.41 0.205 0.614 0.614 0.819 1.434 0.614 1.229-0.41-0.205 2.458-0.614 1.024-2.253 2.867-4.506 3.686-1.229 0.41-1.843 0.819-2.867 0.819-4.71 0.819-5.734-1.843-9.011-0.614-2.662 1.024-2.253 5.325-7.578 7.373-3.277 1.229-4.915 1.229-6.758 0.819-4.506-1.434-5.53-1.229-7.782 3.072-0.41 1.024-1.843 2.867-4.301 3.686-1.843 0.819-2.662 1.024-4.301 1.229 0 0-0.205 0-0.205 0l-0.205 0.205c-3.072 0.205-6.144-2.662-8.397 0-1.638 1.843-1.843 4.915-6.554 6.554-2.253 0.819-2.662 1.024-4.301 1.024-1.024 0-1.638-0.205-2.458-0.41-4.506-1.229-5.325-1.434-7.987 3.072-0.41 0.614-0.819 1.229-1.434 1.843l-0.41 0.41c-1.843 1.434-4.915 2.662-7.168 2.662-2.662 0-4.915-1.843-7.168-1.024v0z" />
<glyph unicode="&#xe904;" d="M636.723 665.702c-2.458 1.024-2.867 2.867-3.482 3.891-0.41 0.614-0.819 1.024-0.819 1.434-1.434 0.614-0.819 0.205-2.048 0.205-0.614 0.205-1.638 0.205-2.048 0.205l2.253-3.482c1.229-1.638 2.048-2.458 5.734-3.891 1.638-0.819 3.686-1.229 4.71-1.229 1.229 0 2.048 0.205 3.072 0.41 1.229 0.205 4.096 1.434 6.349 0.614 1.638-0.614 2.253-1.843 2.458-2.458 0.614-0.819 0.819-1.434 1.434-2.458 1.024-1.843 2.458-3.482 6.758-5.325 3.482-1.434 5.939-1.229 7.782-0.819 1.024 0.205 1.638 0.41 2.662 0.819 0.41 0.205 2.458 0.41 3.482-0.205 0.614-0.205 1.434-1.024 1.843-1.434 2.253-2.662 2.253-5.939 8.192-8.602 8.192-3.482 10.445 1.229 14.336-0.205 1.229-0.41 1.843-1.434 2.253-1.843 0.205-0.41 0.205-0.41 0.41-0.614 1.434-2.048 1.843-5.12 7.782-7.578 5.734-2.458 7.987-0.819 10.854-0.205s4.506 0.205 6.144-2.662c1.229-2.048 1.843-5.12 7.578-7.578 5.53-2.253 8.192-0.819 10.854-0.205 3.277 0.819 5.12-0.614 6.349-2.867 0.614-1.024 1.638-3.891 3.686-4.915 0.205 0.41 0.205 0.819 0.614 0.819 1.843 0.819 1.434-0.41-0.205 3.072-0.614 1.434-2.662 3.686-5.734 4.915-1.434 0.614-2.458 1.024-3.686 1.229-5.939 1.229-7.578-2.253-11.469-0.614-3.277 1.229-2.662 6.758-9.421 9.626-4.096 1.638-6.554 1.638-8.806 1.024-5.734-1.638-7.168-1.434-10.035 4.096-0.614 1.229-2.458 3.686-5.53 4.915-2.458 1.024-3.277 1.434-5.53 1.638 0 0.205-0.205 0.205-0.205 0.205h-0.41c-3.891 0.205-7.987-3.072-11.059 0.205-2.253 2.458-2.458 6.144-8.192 8.806-2.662 1.229-3.482 1.229-5.53 1.434-1.229 0.205-2.253 0-3.072-0.205-5.53-1.638-6.963-1.843-10.035 4.096-0.41 0.819-1.024 1.434-1.843 2.458-0.205 0-0.41 0.205-0.41 0.205l-0.41 0.41c-2.253 1.843-6.144 3.482-9.011 3.482-2.867 0.205-5.734-2.048-8.602-0.819v0z" />
<glyph unicode="&#xe905;" glyph-name="other-modules" d="M565.658 668.57c0-16.384 0-32.768 0-49.152 0-15.77-2.253-32.973 7.168-41.574 8.806-8.192 29.082-5.53 43.213-5.53 16.179 0 32.563 0 48.742 0 1.024-125.952 0-254.566 0-380.928 0-17.408-1.638-38.298 0.819-54.272 2.253-14.541-11.674-28.672-20.275-33.382-12.288-6.349-35.635-3.686-51.61-3.686h-273.203c-20.89 0-33.382-1.843-45.875 9.421-11.059 10.035-11.469 22.938-11.469 42.394v435.814c0 12.493-1.434 43.622 1.434 53.453 10.24 36.045 48.742 27.648 82.534 27.443 72.909-0.205 145.818-0.205 218.522 0v0zM651.264 597.299v0c-10.24 0.205-20.89 0-30.925 0-9.011 0-21.094-1.638-26.624 3.686-5.939 5.734-4.301 17.203-4.301 26.624s-0.614 20.48 0.205 29.696l54.067-52.019c2.458-2.253 5.939-5.325 7.578-7.987zM230.605 402.33v-228.557c0-16.998-2.048-62.054 1.024-75.366 4.301-18.637 19.661-32.563 42.803-33.178 25.19-0.614 51.2 0 76.595 0h263.782c13.926 0 42.189-1.843 53.862 1.843 13.517 4.096 23.962 14.95 28.058 27.443 4.301 13.107 2.048 89.498 2.048 109.978s0.819 380.723-0.205 385.024c-1.024 4.301-11.674 12.288-15.565 16.384-13.517 13.926-33.382 31.334-48.333 46.694-12.493 12.902-38.502 35.226-48.947 47.104-5.12 5.734-14.95 3.686-28.262 3.686-93.594 0-188.826 0.614-282.214 0-16.794-0.205-27.034-6.144-34.611-14.95-9.83-11.264-10.24-19.866-10.24-38.912v-247.194zM660.070 759.296c11.674-12.493 36.454-33.792 48.333-46.49 4.915-5.325 13.107-11.469 16.179-16.589-10.445 0.205-21.094 0-31.539 0-33.382 0-33.382-0.614-33.382 30.72 0 10.035-0.614 23.142 0.41 32.358v0zM282.010 695.603l28.877 0.205c0 12.493-1.434 39.936 0.41 50.586 2.253 12.698 11.264 23.757 21.504 29.286 11.674 6.144 31.949 4.096 47.514 3.891h154.624c33.792 0 69.222 1.024 102.81 0 0-17.613 0-35.43 0-53.043 0-17.408-2.662-35.635 7.782-45.056 9.83-8.806 31.13-5.939 46.899-5.939 17.408 0 35.43 0.41 52.634 0 1.024-46.080 0-93.389 0-139.674v-279.552c0-16.794 2.253-53.453-2.867-66.56-3.277-8.602-8.397-14.131-15.77-19.456-9.011-6.349-15.974-5.734-28.672-6.554l0.205-26.829c7.782-1.024 33.997-0.819 40.755 0.819 24.371 5.734 35.021 24.986 35.021 49.357v463.667c0 8.397 2.253 36.045-1.843 40.755-3.072 3.686-7.987 7.987-10.65 10.65l-32.154 30.515c-7.578 6.758-14.131 13.926-21.709 20.89-7.168 6.554-14.336 13.722-21.094 20.48l-21.504 21.094c-16.998 15.565-7.987 12.698-29.286 12.698h-127.59c-56.115 0-112.23 0-168.346 0-16.589 0-24.166 0.41-35.635-6.349-33.997-19.251-18.432-63.693-21.914-105.882zM307.2 225.587h313.958v22.323l-313.958-0.205zM307.2 480.563h313.958v22.118h-313.958zM307.2 310.579l314.163 0.41-0.41 21.709h-313.549zM307.2 395.571h313.549l0.41 21.914-196.198-0.205c-34.406 0-85.402-1.024-117.76 0.205v-21.914zM307.2 565.76l179.405 0.205c0 6.349 1.434 16.384-0.614 21.299-5.325 1.843-159.334 0.819-178.586 0.41l-0.205-21.914z" />
<glyph unicode="&#xe906;" glyph-name="orders" d="M456.909 310.579l181.453 104.653v-209.715l-45.466-25.395c-7.578-4.301-13.926-8.602-22.323-13.312l-108.749-63.078-4.915 206.848zM914.227 526.438c-1.638 14.95-0.819 18.637-12.698 24.166-4.71 2.253-6.349 2.253-11.264 4.506-7.373 3.482-5.12 3.482-13.312 6.963l-121.651 73.114c-6.144 3.482-8.192 5.325-14.131 3.686-9.011-2.458-33.792-22.938-49.971-25.805v94.413l-152.986 88.678c-6.758 3.891-9.626 6.554-18.432 5.939-8.192-0.614-8.602-2.662-15.155-6.758-19.866-12.288-148.89-81.92-152.781-91.546-5.939-15.155 0.614-146.227-2.867-176.947-8.602-9.011-23.552-14.746-34.611-21.504l-93.184-54.477c-6.349-6.758-4.71-12.902-4.506-24.576l0.41-233.677 177.152-104.243c40.346-27.238 40.346-31.539 83.149-6.349l141.107 81.715c12.288 6.963 36.659 20.275 45.466 28.877l0.41 97.075c19.456-8.602 43.622-24.166 62.464-35.021l3.482-2.048c20.48-12.083 18.842-4.506 61.645 19.251 24.576 13.722 120.218 67.379 123.494 75.571 2.662 12.288 1.229 173.875-1.229 178.995v0zM391.987 119.91l-68.403 40.141-77.824 46.285-0.205 207.258 120.218-69.632c3.891-2.253 7.987-4.71 11.059-6.554 4.301-2.458 5.734-3.482 11.059-6.554 0.41-0.205 1.229-0.614 1.638-1.024 43.827-25.395 33.792-4.506 33.792-123.494 0-35.635 0.41-69.222 2.048-103.424l-33.382 16.998zM757.965 435.507c0.614 0.41 1.229 0.819 1.638 1.024s1.229 0.819 1.638 1.024l111.206 65.331 18.022 8.602v-155.238l-98.509-56.32c-7.578-4.71-23.962-16.589-34.202-18.432v154.010h0.205zM261.734 440.218v0c4.915 8.192 39.117 24.986 48.333 30.925l38.707 22.528c5.53 2.867 7.373 4.096 11.469 6.349l129.638-74.547c33.178-20.070 27.238-16.794 50.176-3.277 6.758 4.096 9.421 5.939 15.974 9.626 34.202 19.456 35.84 26.624 50.79 19.046 6.144-3.277 9.421-4.915 13.107-9.626-6.144-4.915-14.131-8.806-21.914-13.312-4.096-2.458-6.963-4.301-11.469-6.554l-46.694-27.238c-0.41-0.41-1.229-0.819-1.638-1.024l-8.192-4.71c-11.674-6.758-83.354-50.79-90.317-50.176-5.325 0.41-36.25 19.866-45.056 24.986-14.131 8.192-30.515 17.203-45.466 26.010l-87.45 50.995zM731.341 279.45v0c-8.192 1.434-40.96 22.733-57.344 30.72-9.83 4.915-9.83 6.144-9.83 19.661v92.774c0.205 27.443 2.867 23.962-23.757 39.322l-12.288 6.349c29.082 20.275 25.19 12.083 52.838-2.867l50.381-29.491v-156.467zM602.317 640.102c2.662 1.638 6.144 3.686 8.192 4.915l58.778 34.202 0.41-158.925-57.754-33.178c-0.614-0.205-1.229-0.614-1.638-1.024l-41.984-23.757c-4.506-2.458-4.915-2.867-8.397-4.71-5.53-3.277-19.251-12.902-24.166-11.469-4.506 11.264-1.638 130.458-1.024 153.395l67.584 40.55zM448.512 479.949c-18.637 10.65-36.454 20.685-56.73 32.973-16.179 10.035-16.794 5.53-16.589 29.286l1.024 131.891c5.939-0.41 5.939-2.662 16.589-8.806l112.64-66.765c2.458-16.179 2.662-138.65-0.41-152.986l-56.525 34.406zM746.906 611.635c24.986-19.046 116.941-61.85 127.386-78.234l-8.192-5.53-8.806-4.096-31.539-18.637c-20.070-9.83-63.898-39.526-81.51-44.851-12.698 10.445-45.875 24.986-62.669 37.888l6.144 5.734c2.662 1.843 5.734 3.072 8.806 4.301l-0.205 73.728 50.586 29.696zM397.312 697.446c2.662 7.578 7.168 7.987 14.541 12.288 0.41 0.205 1.024 0.614 1.638 0.819 0.41 0.205 1.024 0.614 1.638 0.819 0.41 0.205 1.024 0.614 1.638 0.819 0.614 0.41 2.662 1.434 3.277 1.638 15.565 8.602 93.594 56.934 102.4 56.934 8.192-0.205 25.395-12.698 32.358-16.794 11.469-6.758 19.866-10.854 31.13-17.818 21.299-13.107 40.755-22.733 61.235-35.635l-61.85-37.069c-4.71-2.867-10.445-5.939-15.565-9.011-10.854-6.349-40.755-25.6-47.923-25.805-6.349-0.205-66.765 36.25-78.643 43.418-9.011 5.53-38.502 24.166-45.875 25.395zM277.914 586.65c16.589 16.794 5.939 18.432-19.661 33.997-16.589 10.035-27.034 16.384-43.418 26.419l-64.717 39.936c-40.55 26.829-32.563-4.506-26.624-10.445l140.493-85.197c9.011-5.325 0.41-3.891 13.926-4.71zM260.506 532.992c-4.506 18.022-25.19 15.36-57.139 24.986-11.059 3.482-21.504 4.915-31.949 8.192-9.421 3.072-27.034 10.24-27.853-6.554s25.19-14.131 58.573-24.371c11.469-3.482 22.118-4.71 32.154-8.192 19.866-6.554 15.974-6.144 26.214 5.939zM257.843 692.736c22.938 12.493 10.035 19.251-16.384 47.923l-32.358 35.021c-4.301 4.301-7.168 6.963-14.336 8.602-20.685-12.902-7.782-20.685 18.227-47.718 9.626-10.035 35.635-38.912 44.851-43.827zM111.002 573.338c-6.144 13.722-18.637 14.95-37.069 13.312-1.434-2.253-1.638-1.024-2.867-5.12-1.024-3.482-1.229-3.891-0.41-6.758 2.662-10.035 32.154-22.938 40.346-1.434zM316.826 644.813c6.963 16.589-18.022 37.478-28.467 30.72-13.107-8.192 7.987-38.707 28.467-30.72z" />
<glyph unicode="&#xe907;" d="M798.31 770.765l-455.475 50.176c-16.179 1.843-30.72-9.216-32.358-24.371l-7.373-66.97h28.467l3.891 35.635c1.434 13.722 14.541 23.552 29.082 21.914l409.19-45.261c14.541-1.638 24.986-14.131 23.552-27.853l-57.344-520.806c-1.229-10.65-9.216-18.842-19.456-21.299v-33.587l7.782-0.819c16.179-1.843 30.72 9.216 32.358 24.371l63.898 577.946c1.638 15.36-10.24 29.082-26.214 30.925z" />
<glyph unicode="&#xe908;" d="M690.995 729.6h-359.424l-2.662-24.781h348.57c14.541 0 26.419-11.264 26.419-24.986v-507.699l6.963-0.819c3.277-0.41 6.554-0.205 9.626 0.614v529.818c0 15.36-13.312 27.853-29.491 27.853z" />
<glyph unicode="&#xe909;" d="M297.574 572.723h261.12c8.602 0 8.602 17.613 0 17.613h-261.12v-17.613z" />
<glyph unicode="&#xe90a;" d="M297.574 525.619h261.12c8.192 0 5.734 10.035 3.891 17.613h-265.011v-17.613z" />
<glyph unicode="&#xe90b;" d="M297.574 490.394c0-9.626-1.229-13.722 5.939-13.722h227.738c8.806 0 8.806 19.661 0 19.661h-227.738c-4.506 0-5.939-1.434-5.939-5.939z" />
<glyph unicode="&#xe90c;" d="M297.574 447.181h206.029v-17.613h-206.029v17.613z" />
<glyph unicode="&#xe90d;" d="M580.198 449.229c-6.554 4.506-35.226 41.779-35.226 17.613 0-1.024 25.395-43.213 33.382-43.213 7.373 0 6.349 1.229 10.035 5.734l43.008 58.982c0 4.301-1.638 4.301-3.891 7.782-11.878-2.867-10.445-7.578-24.986-22.118-8.602-8.192-15.974-15.36-22.323-24.781z" />
<glyph unicode="&#xe90e;" d="M297.574 625.766c0-4.506 1.434-5.939 5.939-5.939h96.256c7.578 0 5.939 5.12 5.939 17.613h-107.93v-11.674z" />
<glyph unicode="&#xe90f;" d="M698.368 732.262h-466.944c-16.589 0-30.106-12.698-30.106-28.262v-592.691c0-15.565 13.517-28.262 30.106-28.262h466.944c16.589 0 30.106 12.698 30.106 28.262v592.691c0 15.565-13.517 28.262-30.106 28.262zM702.054 140.8c0-13.926-12.083-25.395-27.034-25.395h-420.25c-14.95 0-27.034 11.469-27.034 25.395v533.709c0 13.926 12.083 25.395 27.034 25.395h420.454c14.95 0 27.034-11.469 27.034-25.395v-533.709z" />
<glyph unicode="&#xe910;" d="M342.426 318.362h9.626v-151.757h-9.626v151.757z" />
<glyph unicode="&#xe911;" d="M405.299 318.362h9.626v-151.757h-9.626v151.757z" />
<glyph unicode="&#xe912;" d="M468.173 318.362h9.626v-151.757h-9.626v151.757z" />
<glyph unicode="&#xe913;" d="M531.046 318.362h9.626v-151.757h-9.626v151.757z" />
<glyph unicode="&#xe914;" d="M593.92 318.362h9.626v-151.757h-9.626v151.757z" />
<glyph unicode="&#xe915;" d="M295.117 283.341h355.123v-9.626h-355.123v9.626z" />
<glyph unicode="&#xe916;" d="M295.117 228.045h355.123v-9.626h-355.123v9.626z" />
<glyph unicode="&#xe917;" d="M296.96 748.032h49.971c3.482-12.698 9.626-24.986 24.986-24.986h275.046c55.706 0-13.926 24.986 84.992 24.986v-584.909h-434.995v584.909zM371.917 762.982v45.056h284.877c0-42.598 5.939-60.006-14.95-60.006h-254.976c-11.469 0-14.95 3.482-14.95 14.95zM267.059 133.018l489.882-0.205v640h-74.957v35.021c49.152 0 99.942 11.674 99.942-39.936v-639.795c0-18.227-13.722-39.936-29.901-39.936h-470.016c-23.347 0-35.021 11.674-35.021 35.021v649.83c0 44.646 41.37 35.021 95.027 35.021v-35.021h-74.957v-640zM217.088 767.898v-640c0-41.574 28.467-70.042 70.042-70.042h449.946c41.779 0 70.042 22.528 70.042 64.922v650.24c0 42.394-28.058 64.922-70.042 64.922h-449.946c-41.779 0-70.042-28.467-70.042-70.042z" />
<glyph unicode="&#xe918;" d="M726.221 419.328c-23.552-4.71-37.069-8.806-59.392-16.589-23.757-8.192-55.91-23.962-75.571-38.502-3.686-2.867-6.963-4.71-10.65-7.782-3.891-3.072-6.963-5.939-10.445-9.011-6.963-5.53-12.902-13.722-19.661-18.227-2.662 2.048-9.83 13.722-12.902 17.818-2.458 3.277-4.096 6.144-6.349 9.011l-29.696 32.973c-17.818 17.203-54.886 44.237-78.029 63.693l-32.358 30.31c-5.325 5.325-10.24 10.035-15.36 15.36l-29.082 33.587c-11.469 14.746-15.77 20.275-26.624 37.069-5.939 9.011-11.059 13.517-15.565 14.746h-5.53c-10.65-3.072-17.203-24.576-21.914-36.659-15.36-39.117-31.539-107.52-31.539-151.142v-28.058c0.205-22.733 1.434-41.574 8.397-69.222 9.421-38.093 22.733-67.379 44.442-99.123 12.902-18.637 34.611-42.598 52.224-56.525l52.429-36.864c26.829-14.541 30.925-17.203 60.621-29.696 8.192-3.482 46.899-18.227 54.682-18.227h33.382c21.094 0.614 40.55 3.072 61.85 13.722 13.107 6.554 21.504 11.878 32.768 20.685l18.227 17.613c2.662 3.482 5.12 5.53 8.192 9.421 5.53 6.963 10.035 13.517 14.95 21.094 8.806 13.722 17.408 32.154 22.938 48.947s7.782 24.576 10.65 41.779c4.71 27.853 5.325 46.49 12.698 77.619 8.397 35.84 14.131 48.947 26.829 80.077 4.506 10.854 10.035 20.275 10.445 26.419v1.024c-0.614 7.373-10.65 9.626-45.056 2.662zM520.602 75.674c0 50.381-22.118 89.293-51.405 127.181l-54.886 64.307c-2.253 2.867-4.096 4.915-6.554 7.782l-19.251 25.805c-11.059 16.589-13.312 21.299-20.89 38.502-2.867 6.554-5.53 14.541-7.373 22.323-0.819 3.072-1.843 7.987-2.458 11.878l-2.458 12.902c-3.277 0-7.168-0.205-7.168-3.072 0-36.25 24.781-77.005 43.622-101.99l26.829-32.768c17.408-17.818 53.453-60.621 65.946-81.715 6.963-11.674 9.626-16.384 14.541-28.672 7.782-19.456 13.107-39.731 13.107-61.645l-35.021 13.107c-39.117 15.77-83.968 38.502-115.302 66.355-15.974 14.131-28.877 26.214-41.779 43.418-3.891 5.12-6.758 8.806-10.24 14.336-6.144 10.035-12.902 19.661-18.227 31.13-2.458 5.325-4.71 10.445-7.373 16.179-2.253 5.325-5.325 12.698-6.758 18.022-7.373 26.624-14.746 53.658-14.541 82.944 0 8.192-2.048 14.131-0.819 23.347 1.024 6.963 1.638 31.949 3.482 44.646 7.168 48.538 15.77 80.691 33.587 125.542 1.229 3.277 2.253 5.939 3.686 8.602 2.867-2.048 5.734-7.987 7.987-11.469 17.408-25.805 39.322-52.838 61.44-74.957l39.936-37.888c16.998-14.95 37.274-29.286 54.272-43.213 3.891-3.072 6.963-6.144 10.65-9.011 16.384-12.493 41.779-43.418 54.682-62.464 20.685-30.925 40.755-79.053 40.755-116.122 0-33.792-1.434-55.296-17.203-86.63-4.506-9.626-23.757-45.67-34.816-46.694zM740.352 383.693c-3.482-7.782-6.144-16.589-9.216-24.781-12.902-35.84-19.456-71.066-24.371-108.954-4.71-35.226-13.517-71.27-33.587-100.966-2.458-3.482-3.891-6.554-6.554-10.035-5.325-7.168-16.794-21.914-23.347-27.034-3.686-2.867-5.53-4.71-9.011-7.578-25.19-20.070-53.043-29.901-88.064-29.901l6.758 8.602c1.229 1.024 1.638 1.229 2.662 2.458 30.72 29.286 38.707 52.838 53.043 95.846 10.65 32.154 17.818 60.006 40.55 86.835 9.83 11.674 23.552 17.613 18.227 22.938-7.373 7.373-34.202-29.491-38.912-37.069-14.95-24.986-22.323-52.634-31.539-80.282-5.12-15.36-8.806-25.805-15.77-39.731l-3.072-5.12c0.819 9.83 19.456 46.694 10.65 98.918-3.686 21.914-10.035 46.49-19.456 65.741-1.843 3.686-2.867 6.349-4.506 9.83-1.434 2.867-3.482 6.144-5.12 9.216 5.12 7.578 19.251 20.275 26.419 26.010 38.912 31.334 85.402 50.995 134.349 61.645 10.035 2.253 20.48 3.482 30.106 5.734l-10.24-22.323zM575.078 124.006c0-0.205 0.205-0.205 0.205-0.205l-0.205 0.205z" />
<glyph unicode="&#xe919;" glyph-name="Inventory" d="M912.179 375.501c-2.662 3.277-4.301 5.734-7.168 8.602-5.939 6.144-9.421 10.65-15.155 16.589l-73.933 84.992-0.41 255.795c0 8.192-2.458 20.685-12.698 20.685h-85.811v82.739c0 12.902-6.144 20.685-19.046 20.685h-480.461c-8.806 0-15.974-9.216-15.974-17.408v-240.23h-66.56c-9.011 0-15.974-6.963-15.974-15.974v-279.962c0-5.325 1.638-6.963 4.301-10.035l194.765-221.798c4.71-5.325 7.578-13.107 17.203-13.107h566.067c7.987 0 15.974 7.987 15.974 15.974v281.6c0 5.939-2.253 7.373-5.12 10.854zM815.514 433.050c4.301-2.867 5.325-5.939 11.469-12.288l34.611-40.141h-46.080v52.429zM201.728 574.566v-31.744c-7.373 8.397-22.118 22.323-27.034 31.744h27.034zM319.283 130.97l-102.195 115.507c-3.891 3.891-4.301 5.734-7.987 9.626-3.891 4.096-5.325 6.349-8.806 10.24-3.072 3.482-5.734 5.325-8.602 9.011l-16.794 19.661c-4.096 4.096-4.71 4.915-8.192 9.421-21.914 27.443-14.541 1.229-14.541 95.232 0 48.742 0 97.485 0 146.227 4.71-3.277 73.114-83.354 85.402-95.846l76.186-86.221c3.686-4.506 5.325-5.734 5.53-13.517 1.638-66.56 0-151.347 0-219.341zM316.211 762.163c-17.408 0-15.974-17.818-15.974-27.034v-303.718l-39.936 44.237c-3.686 4.71-23.552 25.19-23.552 28.877v327.68h445.235v-70.042h-365.773zM333.619 394.957v333.824h448.512v-348.365h-65.126c-7.987 0-15.974-7.987-15.974-15.974v-49.357h-162.202v47.718c0 20.685-24.576 17.408-35.021 17.408h-160.563c-2.253 8.397-9.626 8.602-9.626 14.746zM883.917 105.37c0-3.686-1.024-4.71-4.71-4.71h-524.902v244.941h149.504c0-24.371-5.734-63.693 15.974-63.693h198.861c9.011 0 15.974 6.963 15.974 15.974v47.718h149.504v-240.23zM416.358 444.109h283.034c21.709 0 24.781 35.021-3.277 35.021h-278.118c-23.347 0-23.962-35.021-1.638-35.021zM400.384 652.39v-9.626c0-4.915 9.421-12.698 15.974-12.698h283.034c21.709 0 24.781 35.021-3.277 35.021h-276.48c-8.192 0.205-19.251-5.53-19.251-12.698zM414.72 537.907h286.31c20.070 0 20.070 33.382 0 33.382h-286.31c-19.661 0-19.661-33.382 0-33.382z" />
<glyph unicode="&#xe91a;" glyph-name="aa" d="M150.938 248.32l-1.024 394.24 139.059-53.248 0.819-90.931 31.949-1.434 2.662 74.342c19.661-0.819 128.205-43.622 139.264-56.115l2.253-390.758c-29.491 2.867-288.768 106.906-314.982 123.904v0zM500.326 120.525l-0.614 397.926 312.934 126.362 3.891-146.432c9.626-0.819 20.275-3.686 29.491-5.734 2.048 52.838-4.506 117.76 2.048 191.078-31.334 17.613-262.144 102.605-327.475 131.482-32.154 14.336-52.429 11.264-84.582-2.253-44.032-18.432-78.234-30.106-120.832-48.742-236.339-103.629-200.704-45.261-200.704-168.755l4.096-369.664c5.939-7.987 344.678-154.624 378.266-145.203l128.819 57.958c-5.734 7.168-13.722 15.974-18.432 23.962l-106.906-41.984zM358.81 597.709l284.262 129.024c22.528-8.806 119.194-42.803 135.168-54.067l-204.39-85.197c-120.627-44.851-54.886-50.79-215.040 10.24zM175.923 671.846l60.006 22.733c16.384 6.758 33.178 13.312 50.586 20.48l196.608 77.005 121.037-48.538-292.25-125.338-135.987 53.658zM787.866 500.634c-119.808 0-217.498-97.69-217.498-217.498s97.69-217.498 217.498-217.498c119.808 0 217.498 97.69 217.498 217.498s-97.69 217.498-217.498 217.498zM787.866 94.72c-103.834 0-188.416 84.582-188.416 188.416s84.582 188.416 188.416 188.416c103.834 0 188.416-84.582 188.416-188.416 0-103.629-84.787-188.416-188.416-188.416zM767.795 169.267v94.413h-93.798v39.526h93.798v93.798h39.936v-93.798h94.003v-39.526h-94.003v-94.413z" />
<glyph unicode="&#xe91b;" d="M317.030 547.942h389.939v-24.986h-389.939v24.986z" />
<glyph unicode="&#xe91c;" d="M346.931 672.87h84.992v-35.021h-84.992v35.021zM317.030 607.949h140.083v89.907h-140.083v-89.907z" />
<glyph unicode="&#xe91d;" d="M317.030 398.029h354.918v-24.986h-354.918v24.986z" />
<glyph unicode="&#xe91e;" d="M317.030 497.971h354.918v-24.986h-354.918v24.986z" />
<glyph unicode="&#xe91f;" d="M317.030 448h304.947v-24.986h-304.947v24.986z" />
<glyph unicode="&#xe920;" d="M608.461 240.947l29.082-19.456 47.309 56.115 6.144-19.456-51.2-53.248-41.984 22.733z" />
<glyph unicode="&#xe921;" glyph-name="plant-management" d="M840.704 246.272v0c0 7.578 11.264 17.818 18.022 24.986 2.458 2.867 3.891 5.53 5.939 8.397-7.373 4.915-13.517 16.794-22.323 19.046-8.806-5.939-19.866-19.456-28.672-25.395-15.155 8.192-14.336 6.349-25.395 11.264-3.482 1.434-3.482 2.048-7.987 3.072l-3.277 39.731h-30.106c0-14.541-3.072-30.515-3.277-42.803-6.963-0.614-12.698-2.253-17.613-4.71l-12.698-7.987-24.166 20.275c-3.277 3.072-3.891 4.301-7.987 7.168l-20.275-21.094c1.638-6.144 17.613-20.070 25.395-31.744-9.011-10.65-7.578-29.286-18.637-32.154l-35.226-2.867v-28.672c7.168 0 12.493-1.434 22.323-1.434 22.733 0 17.818-4.301 24.781-19.661l6.963-15.36c-5.939-8.806-19.456-19.866-25.395-28.672 2.253-8.806 14.131-14.95 19.046-22.323 11.264 7.373 8.602 6.963 15.974 12.698 5.325 4.096 9.216 11.059 17.408 11.059 1.843 0 25.395-6.758 29.286-13.517 2.253-3.891 4.096-32.563 4.096-38.912h30.106c0.205 5.325 1.434 33.792 4.506 38.502 1.434 2.048 25.19 21.094 38.912 9.626l22.938-19.046 21.094 20.275-19.456 23.347c-11.264 13.517 7.373 37.478 9.626 38.912 4.506 2.867 33.382 4.301 38.502 4.506v30.106c-4.096 0-34.816 1.638-38.912 4.096-6.349 3.891-13.517 26.419-13.517 29.286zM497.869 854.528h24.576c55.091-1.638 109.568-14.336 157.901-37.478 41.574-19.866 83.149-48.128 115.098-80.282 31.949-31.949 63.898-73.933 82.125-114.893 5.325-11.674 10.65-22.528 14.95-34.202 4.506-11.878 8.397-24.371 11.674-37.478 18.637-73.114 16.998-155.443-6.963-227.328l-10.854-30.31c14.131-9.626 10.445-16.179 3.686-24.371-3.072-3.891-3.482-4.915-7.168-8.602-4.301-4.301-12.493-12.493-13.926-17.818 9.011-0.819 39.731-2.048 44.237-5.12 2.867-2.048 5.12-6.144 5.12-10.854v-58.778c0-16.384-36.25-8.192-49.152-14.336 5.12-7.373 9.011-10.445 14.746-16.998s12.288-12.902 12.288-19.456c0-7.782-42.189-52.429-54.067-52.429-8.602 0-26.010 24.166-36.454 27.034l-1.638-30.31c-0.205-8.192-3.277-19.046-11.059-19.046h-58.778c-22.118 0-8.806 32.973-17.408 49.152-5.939-3.891-11.674-9.626-16.998-14.746-12.288-12.083-21.299-18.842-32.154-2.662l-31.539-11.469c-53.453-17.818-89.702-18.842-144.794-18.842-53.658 0-119.603 21.504-155.648 39.731-44.442 22.528-77.005 46.080-112.435 81.51-38.093 38.298-56.934 68.813-80.282 115.098-28.262 56.115-37.683 112.845-37.683 183.091 0 63.898 23.552 137.83 55.296 190.874 35.635 59.597 87.040 111.206 147.046 146.637 5.939 3.482 10.65 5.939 16.384 9.216 5.734 3.072 10.035 5.12 16.179 7.578 11.264 4.506 21.504 10.24 34.611 14.746 12.698 4.506 23.962 7.987 37.683 11.469 28.058 6.963 56.73 10.854 85.402 11.674zM891.699 449.638c0 45.466-9.216 88.474-20.48 122.47-14.95 45.056-41.37 90.317-72.090 124.928-31.334 35.021-48.128 48.947-86.426 74.138-20.48 13.517-27.034 15.155-46.694 24.781-31.13 15.155-78.438 26.419-112.64 30.31-42.394 4.915-92.16 2.048-129.434-7.373-25.805-6.554-29.286-6.963-54.477-16.998-16.384-6.554-34.202-14.336-48.333-23.142-11.264-6.758-32.563-19.866-43.008-28.467l-38.093-33.382c-50.381-52.838-82.739-112.64-99.942-185.958-19.251-81.92-4.915-194.97 38.093-265.83 18.842-31.13 20.070-33.997 43.418-63.078 88.474-109.568 248.422-159.744 393.421-118.989 9.216 2.662 19.251 6.963 28.877 9.216-2.253 8.806-14.131 14.95-19.046 22.323 4.915 9.421 6.554 9.83 13.107 16.998 23.142 26.010 19.046 22.323-5.12 22.528-9.626 0-15.565 1.638-27.034 1.638v81.101c7.782 0.205 15.974 2.867 23.757 3.277 11.059 0.614 15.77-0.614 25.395 1.638-4.506 8.397-9.011 10.65-14.95 18.432-6.349 8.192-6.144 4.71-15.155 18.227 11.264 16.794 53.043 53.658 55.501 57.139 2.867-1.843 6.963-5.12 9.83-7.578 6.144-5.325 23.142-21.299 28.262-22.528 2.253 9.626 1.024 14.541 1.638 25.395 0.41 8.602 3.277 14.95 3.277 23.757h81.101c0-11.674 1.024-40.141 3.277-49.152 13.312 8.806 26.214 23.962 38.093 30.106 7.373-4.915 13.517-16.794 22.323-19.046 2.458 10.24 6.758 19.866 9.626 30.106 8.806 32.563 13.926 66.765 13.926 103.014zM270.336 561.869c40.755-3.482 92.979-16.384 129.843-31.334 47.923-19.456 92.365-63.283 67.584-118.579-2.867-6.349-11.264-20.070-16.179-23.757-8.397 12.698-13.107 16.998-21.299 27.443-9.626 12.493-24.371 26.419-36.454 37.274-2.458 2.253-3.891 4.096-6.144 6.349-6.144 5.734-29.491 26.624-36.045 26.624-6.144 0-10.035-3.891-10.035-10.035 0-7.373 5.939-9.83 10.24-13.517 30.925-27.034 33.178-28.262 62.464-60.006 4.915-5.12 19.456-22.528 20.89-29.082-57.958-38.707-117.146-11.878-142.95 54.682-14.131 36.659-21.914 83.149-21.914 133.939v0zM630.374 434.278c-29.286 0-44.646 13.107-62.464 24.986 2.867 5.53 4.506 6.963 8.192 11.878 3.277 4.301 5.939 7.987 9.626 11.674 21.709 21.914 33.997 32.358 64.307 40.755 16.998 4.71 10.854 20.685 1.843 20.685-10.24 0-24.166-5.939-31.744-9.626-43.418-21.709-60.826-54.682-66.97-59.187-5.53 10.65-11.469 16.179-14.541 32.973-14.131 80.486 96.87 115.302 158.31 128.205 11.469 2.458 29.901 6.349 42.394 6.349-0.205-74.752-14.95-208.691-108.954-208.691v0zM516.506 526.848c0-24.371 3.482-37.683 15.974-57.754 1.434-2.253 2.662-4.096 3.891-5.939 1.843-2.662 3.277-3.482 4.915-6.144l-4.506-6.758c-1.843-3.686-2.662-4.506-4.506-7.987-14.95-26.624-25.805-57.344-34.816-86.426l-7.373-28.877c-0.819-4.71-0.41-6.349-3.686-8.806-0.819 9.011-11.469 30.925-16.179 39.936-2.253 4.301-5.12 7.168-6.349 12.493 3.686 5.53 11.878 11.059 20.48 28.262 14.746 29.491 14.95 57.754 0 87.040-43.418 85.811-230.195 99.738-233.472 97.69-4.301-2.662-1.434-17.818-1.024-21.094 1.024-7.782 0-27.853 1.843-45.67 4.301-41.37 9.216-67.584 25.19-104.858 1.638-3.482 1.843-5.325 3.686-8.806 10.854-20.070 24.576-38.502 43.418-51.61 38.707-27.443 85.811-20.48 123.699 4.915 1.229-5.325 3.891-9.216 6.554-13.517 12.698-20.685 20.275-54.886 24.166-79.667 1.843-12.288-1.434-29.286 11.878-29.286s9.011 12.288 10.24 23.552c5.939 54.067 13.107 87.859 32.768 137.421l22.118 46.694c4.506-1.229 14.746-11.674 29.901-17.613 26.214-10.65 27.853-9.83 55.091-9.83 41.574 0 74.547 36.659 91.75 70.861 8.397 16.589 15.565 40.96 19.661 61.645 8.806 43.622 7.373 75.981 7.373 120.218l-42.189-5.325c-22.323-3.277-55.706-11.264-76.8-18.227-23.347-7.782-45.466-16.794-65.741-30.31-28.467-19.251-57.958-49.766-57.958-86.221zM721.715 190.771v12.698c0 17.818 16.998 35.021 35.021 35.021 17.613 0 38.502-1.843 45.056-26.419 9.626-36.25-17.408-63.283-53.658-53.658-12.698 3.277-26.419 17.408-26.419 32.358v0zM694.682 198.554c0-38.912 35.84-68.198 60.416-68.198 24.166 0 36.659 2.458 54.477 20.275 46.080 46.080 7.782 114.688-48.128 114.688-34.816 0-66.765-31.949-66.765-66.765zM472.269 302.182h34.611v-235.93h-34.611v235.93z" />
<glyph unicode="&#xe922;" d="M516.096 847.974c-223.642 0-405.094-178.995-405.094-399.974s181.453-399.974 405.094-399.974c223.642 0 405.094 179.2 405.094 399.974s-181.453 399.974-405.094 399.974zM516.096 78.336c-206.848 0-374.374 165.478-374.374 369.664s167.526 369.664 374.374 369.664c206.848 0 374.374-165.478 374.374-369.664s-167.526-369.664-374.374-369.664z" />
</font>
</defs>
</svg>
